<svg xmlns="http://www.w3.org/2000/svg" xmlns:xlink="http://www.w3.org/1999/xlink" width="1080" zoomAndPan="magnify" viewBox="0 0 810 809.999993" height="1080" preserveAspectRatio="xMidYMid meet" version="1.0"><defs><g/><clipPath id="d9c026e396"><path d="M 254.261719 147.960938 L 551 147.960938 L 551 479 L 254.261719 479 Z M 254.261719 147.960938 " clip-rule="nonzero"/></clipPath><clipPath id="e2dbc6b0d6"><path d="M 438 303 L 555.761719 303 L 555.761719 479.460938 L 438 479.460938 Z M 438 303 " clip-rule="nonzero"/></clipPath><clipPath id="32afbeaac7"><path d="M 367 361 L 442 361 L 442 479.460938 L 367 479.460938 Z M 367 361 " clip-rule="nonzero"/></clipPath></defs><g clip-path="url(#d9c026e396)"><path fill="#ffcd4b" d="M 289.441406 347.320312 C 294.160156 355.144531 298.289062 361.984375 302.855469 369.566406 C 310.460938 362.273438 317.804688 355.53125 324.679688 348.332031 C 325.824219 347.132812 325.691406 343.535156 324.777344 341.753906 C 320.964844 334.332031 316.890625 327.019531 312.394531 319.992188 C 309.578125 315.597656 309.421875 312.152344 312.183594 307.515625 C 323.828125 287.972656 335.042969 268.175781 346.953125 247.515625 C 358.335938 267.128906 369.394531 286.199219 380.601562 305.515625 C 390.476562 299.878906 399.675781 294.628906 409.542969 288.992188 C 398.019531 269.054688 387.574219 248.871094 375.042969 230.078125 C 367.191406 218.296875 367.316406 209.40625 375.175781 197.867188 C 385.777344 182.292969 394.40625 165.382812 404.519531 147.96875 C 417.90625 171.164062 430.660156 193.269531 443.425781 215.371094 C 451.636719 229.585938 460.105469 243.660156 467.972656 258.070312 C 470.597656 262.886719 473.058594 263.246094 478.144531 262.046875 C 502.140625 256.414062 526.285156 251.429688 550.933594 247.660156 C 436.835938 293.984375 349.589844 370.125 289.445312 478.898438 C 279.335938 461.496094 270.445312 444.507812 259.890625 428.632812 C 252.597656 417.660156 252.21875 409.019531 259.785156 397.855469 C 270.527344 382.011719 279.300781 364.832031 289.441406 347.3125 Z M 289.441406 347.320312 " fill-opacity="1" fill-rule="nonzero"/></g><g clip-path="url(#e2dbc6b0d6)"><path fill="#155263" d="M 438.851562 339.660156 C 457.023438 327.558594 474.957031 315.613281 493.359375 303.359375 C 495.050781 305.632812 496.339844 307.054688 497.273438 308.667969 C 515.882812 340.839844 534.261719 373.148438 553.1875 405.125 C 556.8125 411.242188 556.429688 415.671875 552.960938 421.445312 C 541.710938 440.179688 530.949219 459.203125 519.402344 479.148438 C 492.386719 432.375 465.914062 386.53125 438.84375 339.660156 Z M 438.851562 339.660156 " fill-opacity="1" fill-rule="nonzero"/></g><g clip-path="url(#32afbeaac7)"><path fill="#155263" d="M 404.492188 479.238281 C 391.71875 457.121094 379.695312 436.539062 368.058594 415.742188 C 366.933594 413.738281 367.175781 409.371094 368.625 407.777344 C 382.734375 392.308594 397.234375 377.195312 412.480469 361.074219 C 422.558594 378.503906 431.921875 394.570312 441.046875 410.765625 C 441.808594 412.117188 441.539062 414.738281 440.714844 416.183594 C 428.980469 436.84375 417.074219 457.40625 404.492188 479.230469 Z M 404.492188 479.238281 " fill-opacity="1" fill-rule="nonzero"/></g><g fill="#155263" fill-opacity="1"><g transform="translate(168.968389, 605.926622)"><g><path d="M 64.984375 -62.734375 L 64.984375 0 L 53.0625 0 L 21.78125 -38.09375 L 21.78125 0 L 7.4375 0 L 7.4375 -62.734375 L 19.453125 -62.734375 L 50.640625 -24.640625 L 50.640625 -62.734375 Z M 64.984375 -62.734375 "/></g></g></g><g fill="#155263" fill-opacity="1"><g transform="translate(236.724447, 605.926622)"><g><path d="M 56.015625 -11.65625 L 56.015625 0 L 7.4375 0 L 7.4375 -62.734375 L 54.84375 -62.734375 L 54.84375 -51.09375 L 21.875 -51.09375 L 21.875 -37.46875 L 51 -37.46875 L 51 -26.171875 L 21.875 -26.171875 L 21.875 -11.65625 Z M 56.015625 -11.65625 "/></g></g></g><g fill="#155263" fill-opacity="1"><g transform="translate(292.201888, 605.926622)"><g><path d="M 20.4375 -50.90625 L 0.359375 -50.90625 L 0.359375 -62.734375 L 55.03125 -62.734375 L 55.03125 -50.90625 L 34.953125 -50.90625 L 34.953125 0 L 20.4375 0 Z M 20.4375 -50.90625 "/></g></g></g><g fill="#ffcd4b" fill-opacity="1"><g transform="translate(342.933228, 605.926622)"><g><path d="M 102.265625 -62.734375 L 81.734375 0 L 66.140625 0 L 52.34375 -42.484375 L 38.09375 0 L 22.578125 0 L 1.96875 -62.734375 L 17.03125 -62.734375 L 31.1875 -18.640625 L 45.984375 -62.734375 L 59.421875 -62.734375 L 73.765625 -18.28125 L 88.375 -62.734375 Z M 102.265625 -62.734375 "/></g></g></g><g fill="#ffcd4b" fill-opacity="1"><g transform="translate(442.506137, 605.926622)"><g><path d="M 37.828125 1.078125 C 31.304688 1.078125 25.429688 -0.320312 20.203125 -3.125 C 14.984375 -5.9375 10.894531 -9.804688 7.9375 -14.734375 C 4.976562 -19.671875 3.5 -25.21875 3.5 -31.375 C 3.5 -37.519531 4.976562 -43.054688 7.9375 -47.984375 C 10.894531 -52.921875 14.984375 -56.789062 20.203125 -59.59375 C 25.429688 -62.40625 31.304688 -63.8125 37.828125 -63.8125 C 44.335938 -63.8125 50.191406 -62.40625 55.390625 -59.59375 C 60.585938 -56.789062 64.675781 -52.921875 67.65625 -47.984375 C 70.644531 -43.054688 72.140625 -37.519531 72.140625 -31.375 C 72.140625 -25.21875 70.644531 -19.671875 67.65625 -14.734375 C 64.675781 -9.804688 60.585938 -5.9375 55.390625 -3.125 C 50.191406 -0.320312 44.335938 1.078125 37.828125 1.078125 Z M 37.828125 -11.296875 C 41.523438 -11.296875 44.867188 -12.144531 47.859375 -13.84375 C 50.847656 -15.550781 53.191406 -17.925781 54.890625 -20.96875 C 56.597656 -24.019531 57.453125 -27.488281 57.453125 -31.375 C 57.453125 -35.25 56.597656 -38.710938 54.890625 -41.765625 C 53.191406 -44.816406 50.847656 -47.191406 47.859375 -48.890625 C 44.867188 -50.585938 41.523438 -51.4375 37.828125 -51.4375 C 34.117188 -51.4375 30.769531 -50.585938 27.78125 -48.890625 C 24.789062 -47.191406 22.441406 -44.816406 20.734375 -41.765625 C 19.035156 -38.710938 18.1875 -35.25 18.1875 -31.375 C 18.1875 -27.488281 19.035156 -24.019531 20.734375 -20.96875 C 22.441406 -17.925781 24.789062 -15.550781 27.78125 -13.84375 C 30.769531 -12.144531 34.117188 -11.296875 37.828125 -11.296875 Z M 37.828125 -11.296875 "/></g></g></g><g fill="#ffcd4b" fill-opacity="1"><g transform="translate(513.488696, 605.926622)"><g><path d="M 47.40625 0 L 35.3125 -17.484375 L 21.953125 -17.484375 L 21.953125 0 L 7.4375 0 L 7.4375 -62.734375 L 34.59375 -62.734375 C 40.15625 -62.734375 44.976562 -61.804688 49.0625 -59.953125 C 53.15625 -58.109375 56.304688 -55.484375 58.515625 -52.078125 C 60.734375 -48.671875 61.84375 -44.632812 61.84375 -39.96875 C 61.84375 -35.3125 60.722656 -31.296875 58.484375 -27.921875 C 56.242188 -24.546875 53.0625 -21.960938 48.9375 -20.171875 L 63 0 Z M 47.140625 -39.96875 C 47.140625 -43.5 46.003906 -46.203125 43.734375 -48.078125 C 41.460938 -49.960938 38.144531 -50.90625 33.78125 -50.90625 L 21.953125 -50.90625 L 21.953125 -29.03125 L 33.78125 -29.03125 C 38.144531 -29.03125 41.460938 -29.988281 43.734375 -31.90625 C 46.003906 -33.820312 47.140625 -36.507812 47.140625 -39.96875 Z M 47.140625 -39.96875 "/></g></g></g><g fill="#ffcd4b" fill-opacity="1"><g transform="translate(574.702122, 605.926622)"><g><path d="M 30.296875 -24.640625 L 21.875 -15.859375 L 21.875 0 L 7.4375 0 L 7.4375 -62.734375 L 21.875 -62.734375 L 21.875 -33.4375 L 49.65625 -62.734375 L 65.78125 -62.734375 L 39.796875 -34.78125 L 67.3125 0 L 50.375 0 Z M 30.296875 -24.640625 "/></g></g></g></svg>